<svg width="52" height="70" viewBox="0 0 52 70" fill="none" xmlns="http://www.w3.org/2000/svg">
<g clip-path="url(#clip0)">
<path d="M27.4268 57.4204L51.4383 33.4089C52.206 32.614 52.184 31.3473 51.3891 30.5795C50.6136 29.8306 49.3843 29.8306 48.609 30.5795L26.0121 53.1764L3.41522 30.5795C2.6339 29.7984 1.3672 29.7984 0.585888 30.5795C-0.195309 31.361 -0.195309 32.6276 0.585888 33.4089L24.5974 57.4204C25.3789 58.2016 26.6454 58.2016 27.4268 57.4204Z" fill="white"/>
</g>
<g clip-path="url(#clip1)">
<path d="M27.4268 39.4204L51.4383 15.4089C52.206 14.614 52.184 13.3473 51.3891 12.5795C50.6136 11.8306 49.3843 11.8306 48.609 12.5795L26.0121 35.1764L3.41522 12.5795C2.6339 11.7984 1.3672 11.7984 0.585888 12.5795C-0.195309 13.361 -0.195309 14.6276 0.585888 15.4089L24.5974 39.4204C25.3789 40.2016 26.6454 40.2016 27.4268 39.4204Z" fill="white"/>
</g>
<defs>
<clipPath id="clip0">
<rect width="52" height="52" fill="white" transform="translate(52 18) rotate(90)"/>
</clipPath>
<clipPath id="clip1">
<rect width="52" height="52" fill="white" transform="translate(52) rotate(90)"/>
</clipPath>
</defs>
</svg>
