<svg width="11" height="11" viewBox="0 0 11 11" fill="none" xmlns="http://www.w3.org/2000/svg">
<path d="M8.89453 0H2.10547C0.944496 0 0 0.944496 0 2.10547V8.89453C0 10.0555 0.944496 11 2.10547 11H5.5C5.61866 11 5.71484 10.9038 5.71484 10.7852V9.12012C5.71484 9.00146 5.61866 8.90527 5.5 8.90527C5.38134 8.90527 5.28516 9.00146 5.28516 9.12012V10.5703H2.10547C1.18145 10.5703 0.429688 9.81855 0.429688 8.89453V2.10547C0.429688 1.18145 1.18145 0.429688 2.10547 0.429688H8.89453C9.81855 0.429688 10.5703 1.18145 10.5703 2.10547V8.89453C10.5703 9.81855 9.81855 10.5703 8.89453 10.5703H7.51953V6.77834H8.76522C8.87556 6.77834 8.96794 6.69477 8.97899 6.585L9.13348 5.04984C9.13956 4.9894 9.11979 4.92925 9.07906 4.88421C9.03833 4.83918 8.98043 4.81349 8.91971 4.81349H7.51953V4.00737C7.51953 3.86147 7.566 3.80722 7.691 3.80722H8.91006C9.02872 3.80722 9.12491 3.71104 9.12491 3.59238V2.09578C9.12491 1.97712 9.02872 1.88094 8.91006 1.88094H7.30911C6.40198 1.88094 5.9209 2.27938 5.67707 2.61364C5.33605 3.0811 5.28513 3.63316 5.28513 3.92062V4.82311H4.2324C4.11374 4.82311 4.01756 4.9193 4.01756 5.03796V6.56348C4.01756 6.68213 4.11374 6.77832 4.2324 6.77832H5.28513V7.39062C5.28513 7.50928 5.38132 7.60547 5.49998 7.60547C5.61864 7.60547 5.71482 7.50928 5.71482 7.39062V6.56348C5.71482 6.44482 5.61864 6.34863 5.49998 6.34863H4.44724V5.25278H5.49998C5.61864 5.25278 5.71482 5.15659 5.71482 5.03794V3.9206C5.71482 3.43651 5.87018 2.3106 7.30911 2.3106H8.69522V3.37752H7.691C7.41368 3.37752 7.08984 3.54247 7.08984 4.00735V5.02831C7.08984 5.14697 7.18603 5.24315 7.30469 5.24315H8.68216L8.57091 6.34863H7.30469C7.18603 6.34863 7.08984 6.44482 7.08984 6.56348V10.7852C7.08984 10.9038 7.18603 11 7.30469 11H8.89453C10.0555 11 11 10.0555 11 8.89453V2.10547C11 0.944496 10.0555 0 8.89453 0Z" fill="black"/>
</svg>
