<svg width="11" height="11" viewBox="0 0 11 11" fill="none" xmlns="http://www.w3.org/2000/svg">
<path d="M7.77734 0.945312H3.22266C1.96692 0.945312 0.945312 1.96692 0.945312 3.22266V7.77734C0.945312 9.03308 1.96692 10.0547 3.22266 10.0547H4.5332C4.65186 10.0547 4.74805 9.9585 4.74805 9.83984C4.74805 9.72119 4.65186 9.625 4.5332 9.625H3.22266C2.20387 9.625 1.375 8.79613 1.375 7.77734V3.22266C1.375 2.20387 2.20387 1.375 3.22266 1.375H7.77734C8.79613 1.375 9.625 2.20387 9.625 3.22266V7.77734C9.625 8.79613 8.79613 9.625 7.77734 9.625H6.48113C6.36247 9.625 6.26628 9.72119 6.26628 9.83984C6.26628 9.9585 6.36247 10.0547 6.48113 10.0547H7.77734C9.03308 10.0547 10.0547 9.03308 10.0547 7.77734V3.22266C10.0547 1.96692 9.03308 0.945312 7.77734 0.945312Z" fill="#FFB800"/>
</svg>
